# xmcd
#
# Track frame offsets:
#	150
#	37117
#	92305
#	123630
#	155923
#	192228
#	238208
#	259204
#	286708
#
# Disc length: 4306 seconds
#
# Revision: 1
# Processed by: cddbd v1.5.2PL0 Copyright (c) Steve Scherf et al.
# Submitted via: audiograbber 1.83.01
#
DISCID=7f10d009
DTITLE=Grateful Dead - 80-12-27 Oakland Auditorium Arena, Oakland CA
DYEAR=1900
DGENRE=
TTITLE0=Feel Like A Stranger
TTITLE1=Sugaree
TTITLE2=New Minglewood Blues
TTITLE3=Loser
TTITLE4=Looks Like Rain
TTITLE5=Tennessee Jed
TTITLE6=Passenger
TTITLE7=It Must Have Been The Roses
TTITLE8=The Music Never Stopped
EXTD=
EXTT0=
EXTT1=
EXTT2=
EXTT3=
EXTT4=
EXTT5=
EXTT6=
EXTT7=
EXTT8=
PLAYORDER=
